<svg xmlns="http://www.w3.org/2000/svg" width="182.591" height="159.767" viewBox="0 0 182.591 159.767">
  <path id="camera" d="M182.591,71.942V174.649a17.122,17.122,0,0,1-17.118,17.118H17.118A17.122,17.122,0,0,1,0,174.649V71.942A17.122,17.122,0,0,1,17.118,54.824H48.5l4.386-11.733A17.094,17.094,0,0,1,68.9,32h44.756a17.094,17.094,0,0,1,16.012,11.091l4.422,11.733h31.383A17.122,17.122,0,0,1,182.591,71.942ZM134.09,123.3A42.795,42.795,0,1,0,91.3,166.09,42.829,42.829,0,0,0,134.09,123.3Zm-11.412,0A31.383,31.383,0,1,1,91.3,91.913,31.429,31.429,0,0,1,122.678,123.3Z" transform="translate(0 -32)" fill="#fdfdfd"/>
</svg>
