<svg xmlns="http://www.w3.org/2000/svg" width="191.82" height="140.634" viewBox="0 0 191.82 140.634">
  <path id="folder-open" d="M190.719,147.535,166.6,193.005c-3.819,7.2-10.829,11.629-18.41,11.629H14.994c-6.169,0-10.012-7.359-6.9-13.218l24.119-45.47c3.82-7.2,10.83-11.629,18.41-11.629h133.2C189.984,134.317,193.828,141.676,190.719,147.535ZM50.619,122.6H159.85V105.018c0-9.709-7.157-17.579-15.985-17.579H90.582L69.268,64H15.985C7.157,64,0,71.87,0,81.579v101.83L23,140.04C28.711,129.281,39.293,122.6,50.619,122.6Z" transform="translate(0 -64)" fill="#fff"/>
</svg>
