<svg xmlns="http://www.w3.org/2000/svg" width="38" height="38" viewBox="0 0 38 38">
  <path id="save" d="M36.807,40.307l-7.115-7.115A4.071,4.071,0,0,0,26.814,32H4.071A4.071,4.071,0,0,0,0,36.071V65.929A4.071,4.071,0,0,0,4.071,70H33.929A4.071,4.071,0,0,0,38,65.929V43.186a4.071,4.071,0,0,0-1.192-2.879ZM19,64.571a5.429,5.429,0,1,1,5.429-5.429A5.429,5.429,0,0,1,19,64.571Zm8.143-25.83v8.526a1.018,1.018,0,0,1-1.018,1.018H6.446a1.018,1.018,0,0,1-1.018-1.018V38.446a1.018,1.018,0,0,1,1.018-1.018H25.83a1.018,1.018,0,0,1,.72.3l.3.3a1.018,1.018,0,0,1,.3.72Z" transform="translate(0 -32)" fill="#443fce"/>
</svg>
