<svg xmlns="http://www.w3.org/2000/svg" width="72.788" height="76.035" viewBox="0 0 72.788 76.035">
  <path id="cog" d="M90.5,55.253l-6.53-3.771a29.528,29.528,0,0,0,0-10.761l6.53-3.771a1.853,1.853,0,0,0,.843-2.146A38.179,38.179,0,0,0,82.96,20.3a1.845,1.845,0,0,0-2.269-.353l-6.53,3.771a28.931,28.931,0,0,0-9.32-5.381V10.813A1.837,1.837,0,0,0,63.4,9.019a38.537,38.537,0,0,0-16.74,0,1.837,1.837,0,0,0-1.441,1.794v7.542a29.844,29.844,0,0,0-9.32,5.381l-6.515-3.771a1.821,1.821,0,0,0-2.269.353,37.95,37.95,0,0,0-8.385,14.5,1.834,1.834,0,0,0,.843,2.146l6.53,3.771a29.528,29.528,0,0,0,0,10.761l-6.53,3.771a1.853,1.853,0,0,0-.843,2.146,38.179,38.179,0,0,0,8.385,14.5,1.845,1.845,0,0,0,2.269.353l6.53-3.771a28.931,28.931,0,0,0,9.32,5.381V81.42a1.837,1.837,0,0,0,1.441,1.794,38.537,38.537,0,0,0,16.74,0,1.837,1.837,0,0,0,1.441-1.794V73.878a29.843,29.843,0,0,0,9.32-5.381l6.53,3.771a1.821,1.821,0,0,0,2.269-.353,37.95,37.95,0,0,0,8.385-14.5A1.893,1.893,0,0,0,90.5,55.253ZM55.029,58.365A12.264,12.264,0,1,1,67.293,46.1,12.28,12.28,0,0,1,55.029,58.365Z" transform="translate(-18.644 -8.099)" fill="#fff"/>
</svg>
