<svg xmlns="http://www.w3.org/2000/svg" width="38" height="38" viewBox="0 0 38 38">
  <path id="sync-alt" d="M35.789,17.6a12.874,12.874,0,0,0-21.273,6.249.922.922,0,0,1-.893.7H9.234a.919.919,0,0,1-.9-1.086,19,19,0,0,1,31.8-10.2l2.736-2.736A1.839,1.839,0,0,1,46,11.826V22.1a1.839,1.839,0,0,1-1.839,1.839H33.891a1.839,1.839,0,0,1-1.3-3.139ZM9.839,30.065H20.109a1.839,1.839,0,0,1,1.3,3.139l-3.2,3.2a12.874,12.874,0,0,0,21.273-6.249.922.922,0,0,1,.893-.7h4.39a.919.919,0,0,1,.9,1.086,19,19,0,0,1-31.8,10.2l-2.736,2.736A1.839,1.839,0,0,1,8,42.174V31.9A1.839,1.839,0,0,1,9.839,30.065Z" transform="translate(-8 -8)" fill="#b2b0f3"/>
</svg>
